<svg width="196" height="58" viewBox="0 0 196 58" fill="none" xmlns="http://www.w3.org/2000/svg">
<path d="M8.5 24.4V33.7H17.7V24.4C17.7 24.4 8.5 24.4 8.5 24.4Z" fill="#6AC17B"/>
<path d="M0 36L3.5 44.6L12 41L8.5 32.4L0 36Z" fill="#6AC17B"/>
<path d="M17.7 11.3L11.2 17.8L17.7 24.3L24.2 17.8L17.7 11.3Z" fill="#6AC17B"/>
<path d="M3.5 13.5L0 22L8.5 25.5L12 17L3.5 13.5Z" fill="#6AC17B"/>
<path d="M11.2 40.2L17.7 46.7L24.2 40.2L17.7 33.7L11.2 40.2Z" fill="#6AC17B"/>
<path d="M13.3 54.5L21.8 58L25.3 49.4L16.8 45.9L13.3 54.5Z" fill="#6AC17B"/>
<path d="M33.3001 40.2H24.1001V49.5H33.3001V40.2Z" fill="#6AC17B"/>
<path d="M40.6001 45.9L32.1001 49.4L35.6001 58L44.1001 54.5L40.6001 45.9Z" fill="#6AC17B"/>
<path d="M39.8 33.6L33.3 40.1L39.8 46.6L46.3 40.1L39.8 33.6Z" fill="#6AC17B"/>
<path d="M49 32.5L45.5 41L54 44.5L57.5 35.9L49 32.5Z" fill="#6AC17B"/>
<path d="M49 33.6V24.3H39.8V33.6H49Z" fill="#6AC17B"/>
<path d="M57.5 22L54 13.5L45.5 17L49 25.6L57.5 22Z" fill="#6AC17B"/>
<path d="M46.3 17.8L39.8 11.3L33.3 17.8L39.8 24.3L46.3 17.8Z" fill="#6AC17B"/>
<path d="M44.2 3.5L35.7 0L32.2 8.6L40.7 12.1L44.2 3.5Z" fill="#6AC17B"/>
<path d="M24.2 17.8H33.4V8.60001H24.2V17.8Z" fill="#6AC17B"/>
<path d="M16.8 12.1L25.3 8.6L21.8 0L13.3 3.5L16.8 12.1Z" fill="#6AC17B"/>
<path d="M71.3999 26.4V5.10001H79.7999C81.6999 5.10001 83.1999 5.60001 84.1999 6.70001C85.1999 7.80001 85.6999 9.30001 85.6999 11.2C85.6999 13.1 85.1999 14.6 84.1999 15.7C83.1999 16.8 81.6999 17.3 79.7999 17.3H73.9999V26.4H71.3999ZM73.8999 15H79.7999C80.7999 15 81.5999 14.7 82.0999 14.2C82.6999 13.7 82.8999 12.9 82.8999 11.9V10.3C82.8999 9.30001 82.5999 8.60001 82.0999 8.00001C81.4999 7.50001 80.7999 7.20001 79.7999 7.20001H73.8999V15Z" fill="#6AC17B"/>
<path d="M88.3 26.4V24.3H91.3V7.20001H88.3V5.10001H96.8V7.20001H93.8V24.3H96.8V26.4H88.3Z" fill="#6AC17B"/>
<path d="M100.6 26.4V5.10001H109C110.9 5.10001 112.4 5.60001 113.4 6.70001C114.4 7.80001 114.9 9.30001 114.9 11.2C114.9 13.1 114.4 14.6 113.4 15.7C112.4 16.8 110.9 17.3 109 17.3H103.1V26.4H100.6ZM103.1 15H109C110 15 110.8 14.7 111.3 14.2C111.9 13.7 112.1 12.9 112.1 11.9V10.3C112.1 9.30001 111.8 8.60001 111.3 8.00001C110.7 7.50001 110 7.20001 109 7.20001H103.1V15Z" fill="#00534A"/>
<path d="M118.4 26.4V5.10001H126.8C128.7 5.10001 130.2 5.60001 131.2 6.70001C132.2 7.80001 132.7 9.30001 132.7 11.2C132.7 13.1 132.2 14.6 131.2 15.7C130.2 16.8 128.7 17.3 126.8 17.3H120.9V26.4H118.4ZM120.9 15H126.8C127.8 15 128.6 14.7 129.1 14.2C129.7 13.7 129.9 12.9 129.9 11.9V10.3C129.9 9.30001 129.6 8.60001 129.1 8.00001C128.5 7.50001 127.8 7.20001 126.8 7.20001H120.9V15Z" fill="#00534A"/>
<path d="M142.6 26.8C140.9 26.8 139.4 26.5 138.2 25.8C137 25.1 136 24.2 135.1 23.1L137 21.5C137.7 22.5 138.6 23.3 139.5 23.8C140.4 24.3 141.5 24.6 142.7 24.6C144.2 24.6 145.4 24.2 146.2 23.5C147 22.8 147.4 21.8 147.4 20.6C147.4 19.6 147.1 18.8 146.5 18.2C145.9 17.7 144.9 17.2 143.5 16.9L141.8 16.5C139.9 16.1 138.4 15.4 137.4 14.5C136.4 13.6 135.9 12.3 135.9 10.7C135.9 9.79999 136.1 8.89999 136.4 8.19999C136.7 7.49999 137.2 6.89999 137.8 6.39999C138.4 5.89999 139.2 5.49999 140 5.29999C140.9 4.99999 141.8 4.89999 142.8 4.89999C144.4 4.89999 145.8 5.19999 146.9 5.79999C148 6.39999 149 7.29999 149.8 8.39999L147.9 9.79999C147.3 8.99999 146.6 8.29999 145.8 7.89999C145 7.39999 143.9 7.19999 142.7 7.19999C141.3 7.19999 140.3 7.49999 139.5 8.09999C138.7 8.69999 138.3 9.49999 138.3 10.7C138.3 11.7 138.6 12.5 139.3 13C140 13.5 141 13.9 142.3 14.2L144 14.6C146.1 15.1 147.6 15.8 148.5 16.7C149.4 17.7 149.9 18.9 149.9 20.5C149.9 21.5 149.7 22.4 149.4 23.2C149.1 24 148.6 24.7 148 25.2C147.4 25.7 146.6 26.2 145.7 26.5C144.7 26.6 143.7 26.8 142.6 26.8Z" fill="#00534A"/>
<path d="M71.8 42.9V36.5H74.3C74.9 36.5 75.3 36.7 75.6 37C75.9 37.3 76.1 37.8 76.1 38.3C76.1 38.8 75.9 39.3 75.6 39.6C75.3 39.9 74.9 40.1 74.3 40.1H72.5V42.8H71.8V42.9ZM72.6 39.5H74.4C74.7 39.5 74.9 39.4 75.1 39.3C75.3 39.2 75.4 38.9 75.4 38.6V38.1C75.4 37.8 75.3 37.6 75.1 37.4C74.9 37.2 74.7 37.2 74.4 37.2H72.6V39.5Z" fill="#00534A"/>
<path d="M80.7001 42.9C80.4001 42.9 80.2001 42.8 80.1001 42.7C80.0001 42.6 79.9001 42.4 79.9001 42.2C79.8001 42.5 79.6001 42.7 79.4001 42.9C79.2001 43 78.9001 43.1 78.5001 43.1C78.0001 43.1 77.6001 43 77.3001 42.7C77.0001 42.4 76.9001 42.1 76.9001 41.7C76.9001 41.3 77.1001 40.9 77.4001 40.7C77.7001 40.5 78.2001 40.3 78.9001 40.3H79.8001V39.8C79.8001 39.5 79.7001 39.2 79.5001 39C79.3001 38.8 79.0001 38.7 78.7001 38.7C78.4001 38.7 78.2001 38.8 78.0001 38.9C77.8001 39 77.6001 39.2 77.5001 39.4L77.1001 39C77.2001 38.7 77.4001 38.5 77.7001 38.3C78.0001 38.1 78.3001 38 78.8001 38C79.4001 38 79.8001 38.1 80.1001 38.4C80.4001 38.7 80.6001 39.1 80.6001 39.6V42.2H81.1001V42.8H80.7001V42.9ZM78.6001 42.3C78.8001 42.3 79.0001 42.3 79.1001 42.2C79.3001 42.2 79.4001 42.1 79.5001 42C79.6001 41.9 79.7001 41.8 79.8001 41.7C79.9001 41.6 79.9001 41.5 79.9001 41.4V40.6H78.9001C78.5001 40.6 78.2001 40.7 78.0001 40.8C77.8001 40.9 77.7001 41.1 77.7001 41.3V41.5C77.7001 41.7 77.8001 41.9 78.0001 42C78.1001 42.3 78.4001 42.3 78.6001 42.3Z" fill="#00534A"/>
<path d="M83.9 43C83.6 43 83.3 42.9 83 42.8C82.7 42.7 82.5 42.5 82.3 42.3C82.1 42.1 82 41.8 81.9 41.5C81.8 41.2 81.8 40.9 81.8 40.5C81.8 40.1 81.8 39.8 81.9 39.5C82 39.2 82.1 38.9 82.3 38.7C82.5 38.5 82.7 38.3 83 38.2C83.3 38.1 83.6 38 83.9 38C84.4 38 84.7 38.1 85 38.3C85.3 38.5 85.5 38.8 85.6 39.1L85 39.4C84.9 39.2 84.8 39 84.6 38.8C84.4 38.7 84.2 38.6 83.9 38.6C83.7 38.6 83.5 38.6 83.3 38.7C83.1 38.8 83 38.9 82.9 39C82.8 39.1 82.7 39.3 82.7 39.4C82.6 39.6 82.6 39.8 82.6 40V40.8C82.6 41.2 82.7 41.6 82.9 41.8C83.1 42.1 83.4 42.2 83.9 42.2C84.5 42.2 84.9 41.9 85.2 41.4L85.7 41.8C85.5 42.1 85.3 42.4 85 42.6C84.7 42.9 84.4 43 83.9 43Z" fill="#00534A"/>
<path d="M87.1 37C86.9 37 86.8 37 86.8 36.9C86.7 36.8 86.7 36.7 86.7 36.6V36.5C86.7 36.4 86.7 36.3 86.8 36.2C86.9 36.1 87 36.1 87.1 36.1C87.3 36.1 87.4 36.1 87.4 36.2C87.5 36.3 87.5 36.4 87.5 36.5V36.6C87.5 36.7 87.5 36.8 87.4 36.9C87.3 37 87.2 37 87.1 37ZM86.7 38.1H87.4V42.8H86.7V38.1Z" fill="#00534A"/>
<path d="M89.2001 38.8H88.4001V38.2H89.2001V37.2C89.2001 36.9 89.3001 36.6 89.5001 36.4C89.7001 36.2 89.9001 36.1 90.3001 36.1H91.0001V36.7H90.0001V38.1H92.6001V42.8H91.9001V38.7H90.0001V42.8H89.3001V38.8H89.2001ZM92.2001 37C92.0001 37 91.9001 37 91.9001 36.9C91.8001 36.8 91.8001 36.7 91.8001 36.6V36.5C91.8001 36.4 91.8001 36.3 91.9001 36.2C92.0001 36.1 92.1001 36.1 92.2001 36.1C92.4001 36.1 92.5001 36.1 92.5001 36.2C92.6001 36.3 92.6001 36.4 92.6001 36.5V36.6C92.6001 36.7 92.6001 36.8 92.5001 36.9C92.5001 37 92.4001 37 92.2001 37Z" fill="#00534A"/>
<path d="M95.9 43C95.6 43 95.3 42.9 95 42.8C94.7 42.7 94.5 42.5 94.3 42.3C94.1 42.1 94 41.8 93.9 41.5C93.8 41.2 93.8 40.9 93.8 40.5C93.8 40.1 93.8 39.8 93.9 39.5C94 39.2 94.1 38.9 94.3 38.7C94.5 38.5 94.7 38.3 95 38.2C95.3 38.1 95.6 38 95.9 38C96.4 38 96.7 38.1 97 38.3C97.3 38.5 97.5 38.8 97.6 39.1L97 39.4C96.9 39.2 96.8 39 96.6 38.8C96.4 38.7 96.2 38.6 95.9 38.6C95.7 38.6 95.5 38.6 95.3 38.7C95.1 38.8 95 38.9 94.9 39C94.8 39.1 94.7 39.3 94.7 39.4C94.6 39.6 94.6 39.8 94.6 40V40.8C94.6 41.2 94.7 41.6 94.9 41.8C95.1 42.1 95.4 42.2 95.9 42.2C96.5 42.2 96.9 41.9 97.2 41.4L97.7 41.8C97.5 42.1 97.3 42.4 97 42.6C96.7 42.9 96.4 43 95.9 43Z" fill="#00534A"/>
<path d="M100.5 42.9V42.3H101.4V37.2H100.5V36.6H103.1V37.2H102.2V42.3H103.1V42.9H100.5Z" fill="#00534A"/>
<path d="M104.2 42.9V38.2H104.9V39C105 38.7 105.2 38.5 105.4 38.4C105.6 38.2 105.9 38.2 106.2 38.2C106.7 38.2 107.1 38.4 107.4 38.7C107.7 39 107.8 39.5 107.8 40V43H107.1V40C107.1 39.2 106.7 38.7 106 38.7C105.9 38.7 105.7 38.7 105.6 38.8C105.5 38.8 105.3 38.9 105.2 39C105.1 39.1 105 39.2 104.9 39.3C104.8 39.4 104.8 39.5 104.8 39.7V43H104.2V42.9Z" fill="#00534A"/>
<path d="M110.8 43C110.4 43 110 42.9 109.7 42.7C109.4 42.5 109.2 42.3 108.9 42L109.4 41.6C109.6 41.8 109.8 42 110 42.1C110.2 42.2 110.5 42.3 110.8 42.3C111.1 42.3 111.4 42.2 111.5 42.1C111.7 42 111.8 41.8 111.8 41.5C111.8 41.3 111.7 41.2 111.6 41C111.5 40.9 111.3 40.8 111 40.7L110.6 40.6C110.4 40.6 110.2 40.5 110 40.5C109.8 40.4 109.7 40.4 109.5 40.2C109.4 40.1 109.3 40 109.2 39.8C109.1 39.6 109.1 39.5 109.1 39.2C109.1 39 109.1 38.8 109.2 38.6C109.3 38.4 109.4 38.3 109.6 38.2C109.8 38.1 109.9 38 110.1 37.9C110.3 37.8 110.5 37.8 110.8 37.8C111.2 37.8 111.5 37.9 111.8 38C112.1 38.1 112.3 38.3 112.5 38.6L112 39C111.9 38.9 111.7 38.7 111.5 38.6C111.3 38.5 111 38.4 110.7 38.4C110.4 38.4 110.2 38.5 110 38.6C109.8 38.7 109.8 38.9 109.8 39.1C109.8 39.3 109.9 39.5 110 39.6C110.1 39.7 110.4 39.8 110.7 39.8L111.1 39.9C111.6 40 112 40.1 112.2 40.4C112.4 40.6 112.5 40.9 112.5 41.3C112.5 41.8 112.3 42.1 112 42.4C111.7 42.8 111.3 43 110.8 43Z" fill="#00534A"/>
<path d="M114.9 42.9C114.6 42.9 114.4 42.8 114.3 42.7C114.2 42.6 114.1 42.4 114.1 42.1V38.8H113.3V38.2H113.7C113.9 38.2 114 38.2 114 38.1C114.1 38 114.1 37.9 114.1 37.8V36.9H114.8V38.2H115.8V38.8H114.8V42.2H115.8V42.8H114.9V42.9Z" fill="#00534A"/>
<path d="M117.3 37C117.1 37 117 37 117 36.9C117 36.8 116.9 36.7 116.9 36.6V36.5C116.9 36.4 116.9 36.3 117 36.2C117.1 36.1 117.2 36.1 117.3 36.1C117.4 36.1 117.6 36.1 117.6 36.2C117.6 36.3 117.7 36.4 117.7 36.5V36.6C117.7 36.7 117.7 36.8 117.6 36.9C117.5 37 117.4 37 117.3 37ZM116.9 38.1H117.6V42.8H116.9V38.1Z" fill="#00534A"/>
<path d="M120.2 42.9C119.9 42.9 119.7 42.8 119.6 42.7C119.5 42.6 119.4 42.4 119.4 42.1V38.8H118.6V38.2H119C119.2 38.2 119.3 38.2 119.3 38.1C119.4 38 119.4 37.9 119.4 37.8V36.9H120.1V38.2H121.1V38.8H120.1V42.2H121.1V42.8H120.2V42.9Z" fill="#00534A"/>
<path d="M125.1 42.1C125 42.2 125 42.3 124.9 42.4C124.8 42.5 124.7 42.6 124.6 42.7C124.5 42.8 124.4 42.8 124.2 42.9C124.1 42.9 123.9 43 123.7 43C123.2 43 122.8 42.8 122.5 42.5C122.2 42.2 122.1 41.7 122.1 41.2V38.2H122.8V41C122.8 41.8 123.2 42.3 123.9 42.3C124 42.3 124.2 42.3 124.3 42.2C124.4 42.2 124.6 42.1 124.7 42C124.8 41.9 124.9 41.8 125 41.7C125.1 41.6 125.1 41.5 125.1 41.3V38H125.8V42.7H125.1V42.1Z" fill="#00534A"/>
<path d="M128.4 42.9C128.1 42.9 127.9 42.8 127.8 42.7C127.7 42.6 127.6 42.4 127.6 42.1V38.8H126.8V38.2H127.2C127.4 38.2 127.5 38.2 127.5 38.1C127.6 38 127.6 37.9 127.6 37.8V36.9H128.3V38.2H129.3V38.8H128.3V42.2H129.3V42.8H128.4V42.9Z" fill="#00534A"/>
<path d="M132.2 43C131.9 43 131.6 42.9 131.3 42.8C131 42.7 130.8 42.5 130.6 42.3C130.4 42.1 130.3 41.8 130.2 41.5C130.1 41.2 130 40.9 130 40.5C130 40.1 130 39.8 130.2 39.5C130.4 39.2 130.4 38.9 130.6 38.7C130.8 38.5 131 38.3 131.3 38.2C131.6 38.1 131.8 38 132.2 38C132.5 38 132.8 38.1 133.1 38.2C133.3 38.3 133.6 38.5 133.7 38.7C133.9 38.9 134 39.1 134.1 39.4C134.2 39.7 134.2 40 134.2 40.3V40.6H130.8V40.8C130.8 41 130.8 41.2 130.9 41.4C131 41.6 131.1 41.7 131.2 41.9C131.3 42.1 131.5 42.1 131.6 42.2C131.8 42.3 132 42.3 132.2 42.3C132.5 42.3 132.8 42.2 133 42.1C133.2 42 133.4 41.8 133.5 41.5L134 41.9C133.8 42.2 133.6 42.5 133.3 42.7C133 42.9 132.6 43 132.2 43ZM132.2 38.6C132 38.6 131.8 38.6 131.7 38.7C131.5 38.8 131.4 38.9 131.3 39C131.2 39.1 131.1 39.3 131 39.4C130.9 39.5 130.9 39.8 130.9 40V40.1H133.5V40C133.5 39.6 133.4 39.2 133.2 39C132.9 38.8 132.6 38.6 132.2 38.6Z" fill="#00534A"/>
<path d="M139.2 43C138.9 43 138.6 42.9 138.3 42.8C138 42.7 137.8 42.5 137.6 42.3C137.4 42.1 137.3 41.8 137.2 41.5C137.1 41.2 137 40.9 137 40.5C137 40.1 137.1 39.8 137.2 39.5C137.3 39.2 137.4 38.9 137.6 38.7C137.8 38.5 138 38.3 138.3 38.2C138.6 38.1 138.9 38 139.2 38C139.5 38 139.8 38.1 140.1 38.2C140.4 38.3 140.6 38.5 140.8 38.7C141 38.9 141.1 39.2 141.2 39.5C141.3 39.8 141.4 40.1 141.4 40.5C141.4 40.9 141.3 41.2 141.2 41.5C141.1 41.8 141 42.1 140.8 42.3C140.6 42.5 140.4 42.7 140.1 42.8C139.8 42.9 139.5 43 139.2 43ZM139.2 42.3C139.6 42.3 139.9 42.2 140.2 41.9C140.4 41.7 140.6 41.3 140.6 40.8V40.1C140.6 39.6 140.5 39.2 140.2 39C140 38.8 139.6 38.6 139.2 38.6C138.8 38.6 138.5 38.7 138.2 39C138 39.2 137.8 39.6 137.8 40.1V40.8C137.8 41.3 137.9 41.7 138.2 41.9C138.5 42.2 138.8 42.3 139.2 42.3Z" fill="#00534A"/>
<path d="M142.5 42.9V38.2H143.2V39C143.3 38.7 143.5 38.5 143.7 38.4C143.9 38.2 144.2 38.2 144.5 38.2C145 38.2 145.4 38.4 145.7 38.7C146 39 146.1 39.5 146.1 40V43H145.4V40C145.4 39.2 145 38.7 144.3 38.7C144.2 38.7 144 38.7 143.9 38.8C143.8 38.8 143.6 38.9 143.5 39C143.4 39.1 143.3 39.2 143.2 39.3C143.1 39.4 143.1 39.5 143.1 39.7V43H142.5V42.9Z" fill="#00534A"/>
<path d="M149.7 42.9V36.5H152.2C152.8 36.5 153.2 36.7 153.5 37C153.8 37.3 154 37.8 154 38.3C154 38.8 153.8 39.3 153.5 39.6C153.2 39.9 152.8 40.1 152.2 40.1H150.4V42.8H149.7V42.9ZM150.5 39.5H152.3C152.6 39.5 152.8 39.4 153 39.3C153.2 39.1 153.3 38.9 153.3 38.6V38.1C153.3 37.8 153.2 37.6 153 37.4C152.8 37.2 152.6 37.2 152.3 37.2H150.5V39.5Z" fill="#00534A"/>
<path d="M158.6 42.9C158.3 42.9 158.1 42.8 158 42.7C157.9 42.6 157.8 42.4 157.8 42.2C157.7 42.5 157.5 42.7 157.3 42.9C157.1 43 156.8 43.1 156.5 43.1C156 43.1 155.6 43 155.3 42.7C155 42.4 154.9 42.1 154.9 41.7C154.9 41.3 155.1 40.9 155.4 40.7C155.7 40.5 156.2 40.3 156.9 40.3H157.8V39.8C157.8 39.5 157.7 39.2 157.5 39C157.3 38.8 157 38.7 156.7 38.7C156.4 38.7 156.2 38.8 156 38.9C155.8 39 155.6 39.2 155.5 39.4L155 39C155.1 38.7 155.3 38.5 155.6 38.3C155.9 38.1 156.2 38 156.7 38C157.3 38 157.7 38.1 158 38.4C158.3 38.7 158.5 39.1 158.5 39.6V42.2H159V42.8H158.6V42.9ZM156.5 42.3C156.7 42.3 156.8 42.3 157 42.2C157.2 42.2 157.3 42.1 157.4 42C157.5 41.9 157.6 41.8 157.7 41.7C157.8 41.6 157.8 41.5 157.8 41.4V40.6H156.8C156.4 40.6 156.1 40.7 155.9 40.8C155.7 40.9 155.6 41.1 155.6 41.3V41.5C155.6 41.7 155.7 41.9 155.9 42C156 42.3 156.2 42.3 156.5 42.3Z" fill="#00534A"/>
<path d="M161 42.9C160.7 42.9 160.5 42.8 160.4 42.7C160.3 42.6 160.2 42.4 160.2 42.1V38.8H159.4V38.2H159.8C160 38.2 160.1 38.2 160.1 38.1C160.2 38 160.2 37.9 160.2 37.8V36.9H160.9V38.2H161.9V38.8H160.9V42.2H161.9V42.8H161V42.9Z" fill="#00534A"/>
<path d="M163 36.1H163.7V38.9C163.8 38.6 164 38.4 164.2 38.3C164.4 38.1 164.7 38.1 165 38.1C165.5 38.1 165.9 38.3 166.2 38.6C166.5 38.9 166.6 39.4 166.6 39.9V42.9H166V40C166 39.2 165.6 38.7 164.9 38.7C164.8 38.7 164.6 38.7 164.5 38.8C164.4 38.8 164.2 38.9 164.1 39C164 39.1 163.9 39.2 163.8 39.3C163.7 39.4 163.7 39.5 163.7 39.7V43H163V36.1Z" fill="#00534A"/>
<path d="M170 43C169.7 43 169.4 42.9 169.1 42.8C168.8 42.7 168.6 42.5 168.4 42.3C168.2 42.1 168.1 41.8 168 41.5C167.9 41.2 167.8 40.9 167.8 40.5C167.8 40.1 167.9 39.8 168 39.5C168.1 39.2 168.2 38.9 168.4 38.7C168.6 38.5 168.8 38.3 169.1 38.2C169.4 38.1 169.7 38 170 38C170.3 38 170.6 38.1 170.9 38.2C171.2 38.3 171.4 38.5 171.6 38.7C171.8 38.9 171.9 39.2 172 39.5C172.1 39.8 172.2 40.1 172.2 40.5C172.2 40.9 172.1 41.2 172 41.5C171.9 41.8 171.8 42.1 171.6 42.3C171.4 42.5 171.2 42.7 170.9 42.8C170.6 42.9 170.3 43 170 43ZM170 42.3C170.4 42.3 170.7 42.2 171 41.9C171.2 41.7 171.4 41.3 171.4 40.8V40.1C171.4 39.6 171.3 39.2 171 39C170.8 38.8 170.4 38.6 170 38.6C169.6 38.6 169.3 38.7 169 39C168.8 39.2 168.6 39.6 168.6 40.1V40.8C168.6 41.3 168.7 41.7 169 41.9C169.2 42.2 169.6 42.3 170 42.3Z" fill="#00534A"/>
<path d="M177.2 43.4C177.2 43.9 177 44.2 176.6 44.5C176.2 44.8 175.6 44.8 174.9 44.8C174.2 44.8 173.6 44.7 173.3 44.5C173 44.3 172.8 44 172.8 43.6C172.8 43.3 172.9 43.1 173 43C173.1 42.9 173.3 42.8 173.5 42.7V42.6C173.2 42.5 173.1 42.2 173.1 41.9C173.1 41.7 173.2 41.5 173.3 41.4C173.4 41.3 173.6 41.2 173.9 41.1C173.6 41 173.4 40.8 173.2 40.5C173 40.2 173 40 173 39.6C173 39.4 173 39.1 173.1 38.9C173.2 38.7 173.3 38.5 173.5 38.4C173.7 38.3 173.8 38.1 174.1 38.1C174.3 38 174.6 38 174.8 38C175.1 38 175.4 38.1 175.7 38.2V38.1C175.7 37.9 175.7 37.8 175.8 37.6C175.9 37.5 176 37.4 176.2 37.4H176.9V38H176V38.3C176.2 38.4 176.3 38.6 176.4 38.8C176.5 39 176.5 39.2 176.5 39.5C176.5 39.7 176.5 40 176.4 40.2C176.3 40.4 176.2 40.6 176 40.7C175.8 40.8 175.7 41 175.4 41C175.2 41.1 174.9 41.1 174.7 41.1C174.5 41.1 174.4 41.1 174.2 41.1C174 41.1 173.9 41.2 173.8 41.3C173.7 41.4 173.6 41.5 173.6 41.6C173.6 41.7 173.7 41.8 173.8 41.9C173.9 42 174.1 42 174.3 42H175.3C175.9 42 176.3 42.1 176.6 42.3C177.1 42.7 177.2 43 177.2 43.4ZM176.5 43.4C176.5 43.2 176.4 43.1 176.3 42.9C176.2 42.8 175.9 42.7 175.5 42.7H174C173.7 42.8 173.6 43 173.6 43.3C173.6 43.5 173.7 43.7 173.8 43.8C173.9 43.9 174.2 44 174.6 44H175.3C175.7 44 176 43.9 176.3 43.8C176.4 43.9 176.5 43.7 176.5 43.4ZM174.9 40.7C175.2 40.7 175.5 40.6 175.6 40.5C175.8 40.4 175.9 40.1 175.9 39.8V39.5C175.9 39.2 175.8 39 175.6 38.8C175.4 38.6 175.2 38.6 174.9 38.6C174.6 38.6 174.3 38.7 174.2 38.8C174 38.9 173.9 39.2 173.9 39.5V39.8C173.9 40.1 174 40.3 174.2 40.5C174.3 40.6 174.6 40.7 174.9 40.7Z" fill="#00534A"/>
<path d="M179.7 43C179.4 43 179.1 42.9 178.8 42.8C178.5 42.7 178.3 42.5 178.1 42.3C177.9 42.1 177.8 41.8 177.7 41.5C177.6 41.2 177.5 40.9 177.5 40.5C177.5 40.1 177.5 39.8 177.7 39.5C177.9 39.2 177.9 38.9 178.1 38.7C178.3 38.5 178.5 38.3 178.8 38.2C179.1 38.1 179.3 38 179.7 38C180 38 180.3 38.1 180.6 38.2C180.8 38.3 181.1 38.5 181.2 38.7C181.4 38.9 181.5 39.1 181.6 39.4C181.7 39.7 181.7 40 181.7 40.3V40.6H178.3V40.8C178.3 41 178.3 41.2 178.4 41.4C178.5 41.6 178.6 41.7 178.7 41.9C178.8 42.1 179 42.1 179.1 42.2C179.3 42.3 179.5 42.3 179.7 42.3C180 42.3 180.3 42.2 180.5 42.1C180.7 42 180.9 41.8 181 41.5L181.5 41.9C181.3 42.2 181.1 42.5 180.8 42.7C180.6 42.9 180.2 43 179.7 43ZM179.7 38.6C179.5 38.6 179.3 38.6 179.2 38.7C179 38.8 178.9 38.9 178.8 39C178.7 39.1 178.6 39.3 178.5 39.4C178.4 39.5 178.4 39.8 178.4 40V40.1H181V40C181 39.6 180.9 39.2 180.7 39C180.4 38.8 180.1 38.6 179.7 38.6Z" fill="#00534A"/>
<path d="M182.9 42.9V38.2H183.6V39C183.7 38.7 183.9 38.5 184.1 38.4C184.3 38.2 184.6 38.2 184.9 38.2C185.4 38.2 185.8 38.4 186.1 38.7C186.4 39 186.5 39.5 186.5 40V43H185.8V40C185.8 39.2 185.4 38.7 184.7 38.7C184.6 38.7 184.4 38.7 184.3 38.8C184.2 38.8 184 38.9 183.9 39C183.8 39.1 183.7 39.2 183.6 39.3C183.5 39.4 183.5 39.5 183.5 39.7V43H182.9V42.9Z" fill="#00534A"/>
<path d="M189.5 43C189.1 43 188.7 42.9 188.4 42.7C188.1 42.5 187.9 42.3 187.6 42L188.1 41.6C188.3 41.8 188.5 42 188.7 42.1C188.9 42.2 189.2 42.3 189.5 42.3C189.8 42.3 190.1 42.2 190.2 42.1C190.4 42 190.5 41.8 190.5 41.5C190.5 41.3 190.4 41.2 190.3 41C190.2 40.9 190 40.8 189.7 40.7L189.3 40.6C189.1 40.6 188.9 40.5 188.7 40.5C188.5 40.4 188.4 40.4 188.2 40.2C188.1 40.1 188 40 187.9 39.8C187.8 39.6 187.8 39.5 187.8 39.2C187.8 39 187.8 38.8 187.9 38.6C188 38.4 188.1 38.3 188.3 38.2C188.5 38.1 188.6 38 188.8 37.9C189 37.8 189.2 37.8 189.5 37.8C189.9 37.8 190.2 37.9 190.5 38C190.8 38.1 191 38.3 191.2 38.6L190.7 39C190.6 38.9 190.4 38.7 190.2 38.6C190 38.5 189.7 38.4 189.4 38.4C189.1 38.4 188.9 38.5 188.7 38.6C188.5 38.7 188.5 38.9 188.5 39.1C188.5 39.3 188.6 39.5 188.7 39.6C188.8 39.7 189.1 39.8 189.4 39.8L189.8 39.9C190.3 40 190.7 40.1 190.9 40.4C191.1 40.6 191.2 40.9 191.2 41.3C191.2 41.8 191 42.1 190.7 42.4C190.4 42.8 190 43 189.5 43Z" fill="#00534A"/>
<path d="M192.9 41.8C193.1 41.8 193.2 41.8 193.3 42C193.4 42.2 193.4 42.2 193.4 42.4V42.5C193.4 42.7 193.3 43 193.2 43.3C193.1 43.6 192.8 43.9 192.6 44.1H192C192.2 43.9 192.3 43.7 192.4 43.5C192.5 43.3 192.6 43.1 192.6 42.9C192.5 42.9 192.4 42.8 192.3 42.7C192.2 42.6 192.2 42.5 192.2 42.4V42.3C192.2 42.1 192.2 42 192.3 41.9C192.6 41.8 192.7 41.8 192.9 41.8Z" fill="#00534A"/>
<path d="M71.8 55V48.6H74.3C74.9 48.6 75.3 48.8 75.6 49.1C75.9 49.4 76.1 49.9 76.1 50.4C76.1 50.9 75.9 51.4 75.6 51.7C75.3 52 74.9 52.2 74.3 52.2H72.5V55H71.8ZM72.6 51.6H74.4C74.7 51.6 74.9 51.5 75.1 51.4C75.3 51.3 75.4 51 75.4 50.7V50.2C75.4 49.9 75.3 49.7 75.1 49.5C74.9 49.3 74.7 49.3 74.4 49.3H72.6V51.6Z" fill="#00534A"/>
<path d="M80.7001 55C80.4001 55 80.2001 54.9 80.1001 54.8C80.0001 54.7 79.9001 54.5 79.9001 54.3C79.8001 54.6 79.6001 54.8 79.4001 55C79.2001 55.1 78.9001 55.2 78.5001 55.2C78.0001 55.2 77.6001 55.1 77.3001 54.8C77.0001 54.5 76.9001 54.2 76.9001 53.8C76.9001 53.4 77.1001 53 77.4001 52.8C77.7001 52.6 78.2001 52.4 78.9001 52.4H79.8001V51.9C79.8001 51.6 79.7001 51.3 79.5001 51.1C79.3001 50.9 79.0001 50.8 78.7001 50.8C78.4001 50.8 78.2001 50.9 78.0001 51C77.8001 51.1 77.6001 51.3 77.5001 51.5L77.1001 51.1C77.2001 50.8 77.4001 50.6 77.7001 50.4C78.0001 50.2 78.3001 50.1 78.8001 50.1C79.4001 50.1 79.8001 50.2 80.1001 50.5C80.4001 50.8 80.6001 51.2 80.6001 51.7V54.3H81.1001V55H80.7001ZM78.6001 54.5C78.8001 54.5 79.0001 54.5 79.1001 54.4C79.3001 54.4 79.4001 54.3 79.5001 54.2C79.6001 54.1 79.7001 54 79.8001 53.9C79.9001 53.8 79.9001 53.7 79.9001 53.6V52.8H78.9001C78.5001 52.8 78.2001 52.9 78.0001 53C77.8001 53.1 77.7001 53.3 77.7001 53.5V53.7C77.7001 53.9 77.8001 54.1 78.0001 54.2C78.1001 54.5 78.4001 54.5 78.6001 54.5Z" fill="#00534A"/>
<path d="M82.1001 55V50.3H82.8001V51.1C82.9001 50.8 83.1001 50.6 83.3001 50.5C83.5001 50.3 83.8001 50.3 84.1001 50.3C84.6001 50.3 85.0001 50.5 85.3001 50.8C85.6001 51.1 85.7001 51.6 85.7001 52.1V55.1H85.0001V52.2C85.0001 51.4 84.6001 50.9 83.9001 50.9C83.8001 50.9 83.6001 50.9 83.5001 51C83.4001 51 83.2001 51.1 83.1001 51.2C83.0001 51.3 82.9001 51.4 82.8001 51.5C82.7001 51.6 82.7001 51.7 82.7001 51.9V55H82.1001Z" fill="#00534A"/>
<path d="M90.3 54.3C90 54.9 89.5 55.2 88.9 55.2C88.6 55.2 88.3 55.1 88.1 55C87.9 54.9 87.7 54.7 87.5 54.5C87.3 54.3 87.2 54 87.1 53.7C87 53.4 87 53.1 87 52.7C87 52.3 87 52 87.1 51.7C87.2 51.4 87.3 51.1 87.5 50.9C87.7 50.7 87.9 50.5 88.1 50.4C88.3 50.3 88.6 50.2 88.9 50.2C89.2 50.2 89.5 50.3 89.7 50.4C89.9 50.5 90.1 50.8 90.2 51.1V48.3H91V55H90.3V54.3ZM89.1 54.5C89.3 54.5 89.4 54.5 89.6 54.4C89.7 54.4 89.9 54.3 90 54.2C90.1 54.1 90.2 54 90.3 53.9C90.4 53.8 90.4 53.6 90.4 53.5V51.7C90.4 51.6 90.4 51.5 90.3 51.3C90.2 51.2 90.1 51.1 90 51C89.9 50.9 89.8 50.9 89.6 50.8C89.5 50.8 89.3 50.7 89.1 50.7C88.7 50.7 88.4 50.8 88.1 51.1C87.9 51.4 87.7 51.7 87.7 52.1V52.9C87.7 53.3 87.8 53.7 88.1 53.9C88.4 54.4 88.7 54.5 89.1 54.5Z" fill="#00534A"/>
<path d="M94.3001 55.2C94.0001 55.2 93.7001 55.1 93.4001 55C93.1001 54.9 92.9001 54.7 92.7001 54.5C92.5001 54.3 92.4001 54 92.3001 53.7C92.2001 53.4 92.1001 53.1 92.1001 52.7C92.1001 52.3 92.2001 52 92.3001 51.7C92.4001 51.4 92.5001 51.1 92.7001 50.9C92.9001 50.7 93.1001 50.5 93.4001 50.4C93.7001 50.3 93.9001 50.2 94.3001 50.2C94.6001 50.2 94.9001 50.3 95.1001 50.4C95.3001 50.5 95.6001 50.7 95.7001 50.9C95.9001 51.1 96.0001 51.3 96.1001 51.6C96.2001 51.9 96.2001 52.2 96.2001 52.5V52.8H93.0001V53C93.0001 53.2 93.0001 53.4 93.1001 53.6C93.2001 53.8 93.3001 53.9 93.4001 54.1C93.5001 54.2 93.7001 54.3 93.8001 54.4C94.0001 54.5 94.2001 54.5 94.4001 54.5C94.7001 54.5 95.0001 54.4 95.2001 54.3C95.4001 54.2 95.6001 54 95.7001 53.7L96.2001 54.1C96.0001 54.4 95.8001 54.7 95.5001 54.9C95.2001 55.1 94.8001 55.2 94.3001 55.2ZM94.3001 50.8C94.1001 50.8 93.9001 50.8 93.8001 50.9C93.6001 51 93.5001 51.1 93.4001 51.2C93.3001 51.3 93.2001 51.5 93.1001 51.6C93.0001 51.7 93.0001 52 93.0001 52.2V52.3H95.6001V52.2C95.6001 51.8 95.5001 51.4 95.3001 51.2C95.0001 51 94.7001 50.8 94.3001 50.8Z" fill="#00534A"/>
<path d="M97.5 55V50.3H98.2V51.1C98.3 51 98.3 50.9 98.4 50.8C98.5 50.7 98.6 50.6 98.7 50.5C98.8 50.4 98.9 50.4 99.1 50.3C99.2 50.3 99.4 50.2 99.6 50.2C99.9 50.2 100.2 50.3 100.5 50.4C100.8 50.5 101 50.8 101.1 51.1C101.2 50.8 101.3 50.6 101.6 50.4C101.8 50.2 102.2 50.1 102.6 50.1C103.1 50.1 103.5 50.3 103.7 50.6C104 50.9 104.1 51.4 104.1 51.9V54.9H103.4V52C103.4 51.6 103.3 51.3 103.2 51C103 50.8 102.8 50.7 102.4 50.7C102.3 50.7 102.1 50.7 102 50.8C101.9 50.8 101.8 50.9 101.6 51C101.4 51.1 101.4 51.2 101.4 51.3C101.3 51.4 101.3 51.5 101.3 51.7V55H100.6V52.1C100.6 51.7 100.5 51.4 100.4 51.1C100.2 50.9 100 50.8 99.6 50.8C99.5 50.8 99.3 50.8 99.2 50.9C99.1 50.9 98.9 51 98.8 51.1C98.7 51.2 98.6 51.3 98.5 51.4C98.4 51.5 98.4 51.6 98.4 51.8V55H97.5Z" fill="#00534A"/>
<path d="M105.8 49.2C105.6 49.2 105.5 49.2 105.5 49.1C105.5 49 105.4 48.9 105.4 48.8V48.7C105.4 48.6 105.4 48.5 105.5 48.4C105.6 48.3 105.7 48.3 105.8 48.3C105.9 48.3 106.1 48.3 106.1 48.4C106.1 48.5 106.2 48.6 106.2 48.7V48.8C106.2 48.9 106.2 49 106.1 49.1C106 49.2 105.9 49.2 105.8 49.2ZM105.4 50.3H106.1V55H105.4V50.3Z" fill="#00534A"/>
<path d="M109.4 55.2C109.1 55.2 108.8 55.1 108.5 55C108.2 54.9 108 54.7 107.8 54.5C107.6 54.3 107.5 54 107.4 53.7C107.3 53.4 107.3 53.1 107.3 52.7C107.3 52.3 107.3 52 107.4 51.7C107.5 51.4 107.6 51.1 107.8 50.9C108 50.7 108.2 50.5 108.5 50.4C108.8 50.3 109.1 50.2 109.4 50.2C109.9 50.2 110.2 50.3 110.5 50.5C110.8 50.7 111 51 111.1 51.3L110.5 51.6C110.4 51.4 110.3 51.2 110.1 51C109.9 50.9 109.7 50.8 109.4 50.8C109.2 50.8 109 50.8 108.8 50.9C108.6 51 108.5 51.1 108.4 51.2C108.3 51.3 108.2 51.5 108.2 51.6C108.1 51.8 108.1 52 108.1 52.2V53C108.1 53.4 108.2 53.8 108.4 54C108.6 54.3 108.9 54.4 109.4 54.4C110 54.4 110.4 54.1 110.7 53.6L111.2 54C111 54.3 110.8 54.6 110.5 54.8C110.2 55.1 109.8 55.2 109.4 55.2Z" fill="#00534A"/>
<path d="M113.8 55.2C113.4 55.2 113 55.1 112.7 54.9C112.4 54.7 112.2 54.5 111.9 54.2L112.4 53.8C112.6 54 112.8 54.2 113 54.3C113.2 54.4 113.5 54.5 113.8 54.5C114.1 54.5 114.4 54.4 114.5 54.3C114.7 54.2 114.8 54 114.8 53.7C114.8 53.5 114.7 53.4 114.6 53.2C114.5 53.1 114.3 53 114 52.9L113.6 52.8C113.4 52.8 113.2 52.7 113 52.7C112.8 52.6 112.7 52.6 112.5 52.4C112.4 52.3 112.3 52.2 112.2 52C112.1 51.8 112.1 51.7 112.1 51.4C112.1 51.2 112.1 51 112.2 50.8C112.3 50.6 112.4 50.5 112.6 50.4C112.8 50.3 112.9 50.2 113.1 50.1C113.3 50 113.5 50 113.8 50C114.2 50 114.5 50.1 114.8 50.2C115.1 50.3 115.3 50.5 115.5 50.8L115 51.2C114.9 51.1 114.7 50.9 114.5 50.8C114.3 50.7 114 50.6 113.7 50.6C113.4 50.6 113.2 50.7 113 50.8C112.8 50.9 112.8 51.1 112.8 51.3C112.8 51.5 112.9 51.7 113 51.8C113.1 51.9 113.4 52 113.7 52L114.1 52.1C114.6 52.2 115 52.3 115.2 52.6C115.4 52.8 115.5 53.1 115.5 53.5C115.5 54 115.3 54.3 115 54.6C114.8 55 114.3 55.2 113.8 55.2Z" fill="#00534A"/>
<path d="M122.2 55C121.9 55 121.7 54.9 121.6 54.8C121.5 54.7 121.4 54.5 121.4 54.3C121.3 54.6 121.1 54.8 120.9 55C120.7 55.1 120.4 55.2 120.1 55.2C119.6 55.2 119.2 55.1 118.9 54.8C118.6 54.5 118.5 54.2 118.5 53.8C118.5 53.4 118.7 53 119 52.8C119.3 52.6 119.8 52.4 120.5 52.4H121.4V51.9C121.4 51.6 121.3 51.3 121.1 51.1C120.9 50.9 120.6 50.8 120.3 50.8C120 50.8 119.8 50.9 119.6 51C119.4 51.1 119.2 51.3 119.1 51.5L118.7 51.1C118.8 50.8 119 50.6 119.3 50.4C119.6 50.2 119.9 50.1 120.4 50.1C121 50.1 121.4 50.2 121.7 50.5C122 50.8 122.2 51.2 122.2 51.7V54.3H122.7V55H122.2ZM120.1 54.5C120.3 54.5 120.4 54.5 120.6 54.4C120.8 54.4 120.9 54.3 121 54.2C121.1 54.1 121.2 54 121.3 53.9C121.4 53.8 121.4 53.7 121.4 53.6V52.8H120.4C120 52.8 119.7 52.9 119.5 53C119.3 53.1 119.2 53.3 119.2 53.5V53.7C119.2 53.9 119.3 54.1 119.5 54.2C119.6 54.5 119.8 54.5 120.1 54.5Z" fill="#00534A"/>
<path d="M123.6 55V50.3H124.3V51.1C124.4 50.8 124.6 50.6 124.8 50.5C125 50.3 125.3 50.3 125.6 50.3C126.1 50.3 126.5 50.5 126.8 50.8C127.1 51.1 127.2 51.6 127.2 52.1V55.1H126.5V52.2C126.5 51.4 126.1 50.9 125.4 50.9C125.3 50.9 125.1 50.9 125 51C124.9 51 124.7 51.1 124.6 51.2C124.5 51.3 124.4 51.4 124.3 51.5C124.2 51.6 124.2 51.7 124.2 51.9V55H123.6Z" fill="#00534A"/>
<path d="M131.8 54.3C131.5 54.9 131 55.2 130.4 55.2C130.1 55.2 129.8 55.1 129.6 55C129.4 54.9 129.2 54.7 129 54.5C128.8 54.3 128.7 54 128.6 53.7C128.5 53.4 128.5 53.1 128.5 52.7C128.5 52.3 128.5 52 128.6 51.7C128.7 51.4 128.8 51.1 129 50.9C129.2 50.7 129.4 50.5 129.6 50.4C129.8 50.3 130.1 50.2 130.4 50.2C130.7 50.2 131 50.3 131.2 50.4C131.4 50.5 131.6 50.8 131.7 51.1V48.3H132.4V55H131.7V54.3H131.8ZM130.6 54.5C130.8 54.5 130.9 54.5 131.1 54.4C131.3 54.3 131.4 54.3 131.5 54.2C131.6 54.1 131.7 54 131.8 53.9C131.9 53.8 131.9 53.6 131.9 53.5V51.7C131.9 51.6 131.9 51.5 131.8 51.3C131.7 51.2 131.6 51.1 131.5 51C131.4 50.9 131.3 50.9 131.1 50.8C130.9 50.7 130.8 50.7 130.6 50.7C130.2 50.7 129.9 50.8 129.6 51.1C129.4 51.4 129.2 51.7 129.2 52.1V52.9C129.2 53.3 129.3 53.7 129.6 53.9C129.8 54.4 130.2 54.5 130.6 54.5Z" fill="#00534A"/>
<path d="M137.9 55.2C137.4 55.2 136.9 55.1 136.6 54.9C136.2 54.7 135.9 54.4 135.7 54.1L136.3 53.6C136.5 53.9 136.8 54.1 137.1 54.3C137.4 54.5 137.7 54.5 138.1 54.5C138.6 54.5 138.9 54.4 139.1 54.2C139.3 54 139.5 53.7 139.5 53.3C139.5 53 139.4 52.8 139.2 52.6C139 52.4 138.7 52.3 138.3 52.2L137.8 52.1C137.2 52 136.8 51.8 136.5 51.5C136.2 51.2 136 50.8 136 50.4C136 50.1 136.1 49.9 136.2 49.7C136.3 49.5 136.4 49.3 136.6 49.2C136.8 49.1 137 48.9 137.3 48.9C137.6 48.8 137.8 48.8 138.2 48.8C138.7 48.8 139.1 48.9 139.4 49.1C139.7 49.3 140 49.5 140.3 49.9L139.7 50.3C139.5 50.1 139.3 49.9 139.1 49.7C138.9 49.6 138.5 49.5 138.2 49.5C137.8 49.5 137.5 49.6 137.2 49.8C136.9 50 136.8 50.2 136.8 50.6C136.8 50.9 136.9 51.1 137.1 51.3C137.3 51.5 137.6 51.6 138 51.7L138.5 51.8C139.1 51.9 139.6 52.2 139.9 52.4C140.2 52.7 140.3 53.1 140.3 53.5C140.3 53.8 140.3 54.1 140.1 54.3C139.9 54.5 139.9 54.7 139.7 54.9C139.5 55.1 139.3 55.2 139 55.3C138.6 55.1 138.3 55.2 137.9 55.2Z" fill="#00534A"/>
<path d="M143.2 55.2C142.9 55.2 142.6 55.1 142.3 55C142 54.9 141.8 54.7 141.6 54.5C141.4 54.3 141.3 54 141.2 53.7C141.1 53.4 141 53.1 141 52.7C141 52.3 141.1 52 141.2 51.7C141.3 51.4 141.4 51.1 141.6 50.9C141.8 50.7 142 50.5 142.3 50.4C142.6 50.3 142.9 50.2 143.2 50.2C143.5 50.2 143.8 50.3 144.1 50.4C144.4 50.5 144.6 50.7 144.8 50.9C145 51.1 145.1 51.4 145.2 51.7C145.3 52 145.4 52.3 145.4 52.7C145.4 53.1 145.3 53.4 145.2 53.7C145.1 54 145 54.3 144.8 54.5C144.6 54.7 144.4 54.9 144.1 55C143.8 55.1 143.5 55.2 143.2 55.2ZM143.2 54.5C143.6 54.5 143.9 54.4 144.2 54.1C144.4 53.9 144.6 53.5 144.6 53V52.3C144.6 51.8 144.5 51.4 144.2 51.2C144 51 143.6 50.8 143.2 50.8C142.8 50.8 142.5 50.9 142.2 51.2C142 51.4 141.8 51.8 141.8 52.3V53C141.8 53.5 141.9 53.9 142.2 54.1C142.5 54.4 142.8 54.5 143.2 54.5Z" fill="#00534A"/>
<path d="M148.3 55.2C148 55.2 147.7 55.1 147.4 55C147.1 54.9 146.9 54.7 146.7 54.5C146.5 54.3 146.4 54 146.3 53.7C146.2 53.4 146.2 53.1 146.2 52.7C146.2 52.3 146.2 52 146.3 51.7C146.4 51.4 146.5 51.1 146.7 50.9C146.9 50.7 147.1 50.5 147.4 50.4C147.7 50.3 148 50.2 148.3 50.2C148.8 50.2 149.1 50.3 149.4 50.5C149.7 50.7 149.9 51 150 51.3L149.4 51.6C149.3 51.4 149.2 51.2 149 51C148.8 50.9 148.6 50.8 148.3 50.8C148.1 50.8 147.9 50.8 147.7 50.9C147.5 51 147.4 51.1 147.3 51.2C147.2 51.3 147.1 51.5 147.1 51.6C147 51.8 147 52 147 52.2V53C147 53.4 147.1 53.8 147.3 54C147.5 54.3 147.8 54.4 148.3 54.4C148.9 54.4 149.3 54.1 149.6 53.6L150.1 54C149.9 54.3 149.7 54.6 149.4 54.8C149.1 55.1 148.8 55.2 148.3 55.2Z" fill="#00534A"/>
<path d="M151.5 49.2C151.3 49.2 151.2 49.2 151.2 49.1C151.2 49 151.1 48.9 151.1 48.8V48.7C151.1 48.6 151.1 48.5 151.2 48.4C151.3 48.3 151.4 48.3 151.5 48.3C151.6 48.3 151.8 48.3 151.8 48.4C151.8 48.5 151.9 48.6 151.9 48.7V48.8C151.9 48.9 151.9 49 151.8 49.1C151.7 49.2 151.6 49.2 151.5 49.2ZM151.1 50.3H151.8V55H151.1V50.3Z" fill="#00534A"/>
<path d="M155.1 55.2C154.8 55.2 154.5 55.1 154.2 55C153.9 54.9 153.7 54.7 153.5 54.5C153.3 54.3 153.2 54 153.1 53.7C153 53.4 152.9 53.1 152.9 52.7C152.9 52.3 152.9 52 153.1 51.7C153.3 51.4 153.3 51.1 153.5 50.9C153.7 50.7 153.9 50.5 154.2 50.4C154.5 50.3 154.7 50.2 155.1 50.2C155.4 50.2 155.7 50.3 156 50.4C156.2 50.5 156.5 50.7 156.6 50.9C156.8 51.1 156.9 51.3 157 51.6C157.1 51.9 157.1 52.2 157.1 52.5V52.8H153.7V53C153.7 53.2 153.7 53.4 153.8 53.6C153.9 53.8 154 53.9 154.1 54.1C154.2 54.3 154.4 54.3 154.5 54.4C154.7 54.5 154.9 54.5 155.1 54.5C155.4 54.5 155.7 54.4 155.9 54.3C156.1 54.2 156.3 54 156.4 53.7L156.9 54.1C156.7 54.4 156.5 54.7 156.2 54.9C155.9 55.1 155.6 55.2 155.1 55.2ZM155.1 50.8C154.9 50.8 154.7 50.8 154.6 50.9C154.4 51 154.3 51.1 154.2 51.2C154.1 51.3 154 51.5 153.9 51.6C153.8 51.7 153.8 52 153.8 52.2V52.3H156.4V52.2C156.4 51.8 156.3 51.4 156.1 51.2C155.8 51 155.5 50.8 155.1 50.8Z" fill="#00534A"/>
<path d="M159.3 55C159 55 158.8 54.9 158.7 54.8C158.6 54.7 158.5 54.5 158.5 54.2V51H157.7V50.4H158.1C158.3 50.4 158.4 50.4 158.4 50.3C158.5 50.2 158.5 50.1 158.5 50V49H159.2V50.3H160.2V51H159.2V54.4H160.2V55H159.3Z" fill="#00534A"/>
<path d="M164.6 50.3H165.3L163.2 56.1C163.1 56.2 163.1 56.4 163 56.5C162.9 56.6 162.9 56.7 162.8 56.7C162.7 56.7 162.6 56.8 162.5 56.8C162.4 56.8 162.2 56.8 162.1 56.8H161.7V56.2H162.4L162.8 55.2L161 50.3H161.7L162.8 53.5L163 54.3L163.3 53.5L164.6 50.3Z" fill="#00534A"/>
</svg>
